<svg width="82" height="82" viewBox="0 0 82 82" fill="none" xmlns="http://www.w3.org/2000/svg">
<path fill-rule="evenodd" clip-rule="evenodd" d="M79.3737 23.9134V57.8759C79.3737 70.4592 71.4987 79.3342 58.9154 79.3342H22.8737C10.2904 79.3342 2.45703 70.4592 2.45703 57.8759V23.9134C2.45703 11.33 10.332 2.4592 22.8737 2.4592H58.9154C71.4987 2.4592 79.3737 11.33 79.3737 23.9134Z" stroke="#F9A825" stroke-width="4.5" stroke-linecap="round" stroke-linejoin="round"/>
<path opacity="0.4" d="M13.0039 59.4621L19.3706 52.7413C21.5831 50.3954 25.2706 50.2829 27.6206 52.4913C27.6914 52.5621 31.5247 56.4579 31.5247 56.4579C33.8372 58.8121 37.6164 58.8496 39.9706 56.5413C40.1247 56.3913 49.6956 44.7829 49.6956 44.7829C52.1622 41.7871 56.5914 41.3579 59.5914 43.8288C59.7914 43.9954 68.8331 53.2746 68.8331 53.2746" stroke="#F9A825" stroke-width="4.5" stroke-linecap="round" stroke-linejoin="round"/>
<path opacity="0.4" fill-rule="evenodd" clip-rule="evenodd" d="M33.9682 29.0546C33.9682 33.0921 30.6974 36.363 26.6599 36.363C22.6224 36.363 19.3516 33.0921 19.3516 29.0546C19.3516 25.0171 22.6224 21.7463 26.6599 21.7463C30.6974 21.7505 33.9682 25.0171 33.9682 29.0546Z" stroke="#F9A825" stroke-width="4.5" stroke-linecap="round" stroke-linejoin="round"/>
</svg>
