<svg width="20" height="22" viewBox="0 0 20 22" fill="none" xmlns="http://www.w3.org/2000/svg">
<path opacity="0.4" d="M17.3249 8.4668C17.3249 8.4668 16.7819 15.2018 16.4669 18.0388C16.3169 19.3938 15.4799 20.1878 14.1089 20.2128C11.4999 20.2598 8.88791 20.2628 6.27991 20.2078C4.96091 20.1808 4.13791 19.3768 3.99091 18.0458C3.67391 15.1838 3.13391 8.4668 3.13391 8.4668" stroke="#E31A1C" stroke-width="2" stroke-linecap="round" stroke-linejoin="round"/>
<path d="M18.7082 5.23828H1.75024" stroke="#E31A1C" stroke-width="2" stroke-linecap="round" stroke-linejoin="round"/>
<path d="M15.4407 5.239C14.6557 5.239 13.9797 4.684 13.8257 3.915L13.5827 2.699C13.4327 2.138 12.9247 1.75 12.3457 1.75H8.1127C7.5337 1.75 7.0257 2.138 6.8757 2.699L6.6327 3.915C6.4787 4.684 5.8027 5.239 5.0177 5.239" stroke="#E31A1C" stroke-width="2" stroke-linecap="round" stroke-linejoin="round"/>
</svg>
