<svg width="22" height="22" viewBox="0 0 22 22" fill="none" xmlns="http://www.w3.org/2000/svg">
<path opacity="0.4" d="M10.4922 1.78906H6.75324C3.67824 1.78906 1.75024 3.96606 1.75024 7.04806V15.3621C1.75024 18.4441 3.66924 20.6211 6.75324 20.6211H15.5772C18.6622 20.6211 20.5812 18.4441 20.5812 15.3621V11.3341" stroke="#029244" stroke-width="2" stroke-linecap="round" stroke-linejoin="round"/>
<path fill-rule="evenodd" clip-rule="evenodd" d="M7.82775 9.9205L15.3008 2.4475C16.2318 1.5175 17.7408 1.5175 18.6718 2.4475L19.8888 3.6645C20.8198 4.5955 20.8198 6.1055 19.8888 7.0355L12.3798 14.5445C11.9728 14.9515 11.4208 15.1805 10.8448 15.1805H7.09875L7.19275 11.4005C7.20675 10.8445 7.43375 10.3145 7.82775 9.9205Z" stroke="#029244" stroke-width="2" stroke-linecap="round" stroke-linejoin="round"/>
<path d="M14.1652 3.60156L18.7312 8.16756" stroke="#029244" stroke-width="2" stroke-linecap="round" stroke-linejoin="round"/>
</svg>
